<svg xmlns="http://www.w3.org/2000/svg" width="256" height="256" viewBox="0 0 256 256"><rect width="256" height="256" rx="36" fill="#57418e"/><g transform="rotate(-13 110 120)"><rect x="42" y="49" width="142" height="161" rx="14" fill="#ad9feb"/></g><g transform="rotate(8 160 125)"><rect x="72" y="45" width="142" height="161" rx="14" fill="#f7ba86"/></g><rect x="62" y="66" width="142" height="153" rx="14" fill="#fff"/><rect x="81" y="87" width="103" height="12" rx="6" fill="#e4dff5"/><g fill="#9183bd"><rect x="106" y="121" width="78" height="10" rx="5"/><rect x="106" y="153" width="78" height="10" rx="5"/><rect x="106" y="185" width="54" height="10" rx="5"/></g><rect x="81" y="120" width="13" height="13" rx="3" fill="#6d5ab6"/><rect x="81" y="152" width="13" height="13" rx="3" fill="#db9157"/><rect x="81" y="184" width="13" height="13" rx="3" fill="#45a5a0"/></svg>