<svg xmlns="http://www.w3.org/2000/svg" width="1544" height="500" viewBox="0 0 1544 500"><rect width="1544" height="500" fill="#57418e"/><circle cx="1500" cy="-70" r="290" fill="#fff" opacity=".035"/><circle cx="1360" cy="525" r="210" fill="#fff" opacity=".035"/><g transform="translate(60 90) scale(1.25)"><g transform="rotate(-13 110 120)"><rect x="42" y="49" width="142" height="161" rx="14" fill="#ad9feb"/></g><g transform="rotate(8 160 125)"><rect x="72" y="45" width="142" height="161" rx="14" fill="#f7ba86"/></g><rect x="62" y="66" width="142" height="153" rx="14" fill="#fff"/><rect x="81" y="87" width="103" height="12" rx="6" fill="#e4dff5"/><g fill="#9183bd"><rect x="106" y="121" width="78" height="10" rx="5"/><rect x="106" y="153" width="78" height="10" rx="5"/><rect x="106" y="185" width="54" height="10" rx="5"/></g><rect x="81" y="120" width="13" height="13" rx="3" fill="#6d5ab6"/><rect x="81" y="152" width="13" height="13" rx="3" fill="#db9157"/><rect x="81" y="184" width="13" height="13" rx="3" fill="#45a5a0"/></g><g font-family="Arial,Helvetica,sans-serif"><text x="454" y="118" font-size="23" letter-spacing="4" fill="#f7ba86">DECKERWEB PLUGINS</text><text x="450" y="233" font-size="80" font-weight="700" fill="white">Builder List Pages</text><text x="454" y="303" font-size="33" fill="#f0f5f7">Your pages. Your builders. One clear overview.</text><text x="454" y="397" font-size="24" fill="#e5eaf0">Recognize builders   ·   Filter content   ·   Keep working</text></g></svg>