<svg xmlns="http://www.w3.org/2000/svg" width="1544" height="500" viewBox="0 0 1544 500"><rect width="1544" height="500" fill="#142b42"/><circle cx="1500" cy="-70" r="290" fill="#fff" opacity=".035"/><circle cx="1360" cy="525" r="210" fill="#fff" opacity=".035"/><g transform="translate(60 90) scale(1.25)"><rect x="38" y="50" width="158" height="151" rx="15" fill="#213a55" stroke="#658298" stroke-width="3"/><g fill="#7192a8"><rect x="57" y="71" width="108" height="10" rx="5"/><rect x="77" y="105" width="95" height="10" rx="5"/><rect x="77" y="138" width="95" height="10" rx="5"/><rect x="77" y="170" width="70" height="10" rx="5"/></g><g fill="#b3ccd6"><circle cx="61" cy="110" r="6"/><circle cx="61" cy="143" r="6"/><circle cx="61" cy="175" r="6"/></g><circle cx="174" cy="159" r="44" fill="#fff2df" stroke="#ffb35c" stroke-width="10"/><path d="M203 193l29 32" stroke="#ffb35c" stroke-width="17" stroke-linecap="round"/><path d="m154 159 13 13 27-28" fill="none" stroke="#17616a" stroke-width="9" stroke-linecap="round" stroke-linejoin="round"/></g><g font-family="Arial,Helvetica,sans-serif"><text x="454" y="118" font-size="23" letter-spacing="4" fill="#ffb35c">DECKERWEB PLUGINS</text><text x="450" y="233" font-size="80" font-weight="700" fill="white">Builder List Pages</text><text x="454" y="303" font-size="33" fill="#f0f5f7">Your pages. Your builders. One clear overview.</text><text x="454" y="397" font-size="24" fill="#e5eaf0">Recognize builders   ·   Filter content   ·   Keep working</text></g></svg>