<svg clip-rule="evenodd" fill-rule="evenodd" stroke-linejoin="round" stroke-miterlimit="2" viewBox="0 0 772 772" xmlns="http://www.w3.org/2000/svg" xmlns:xlink="http://www.w3.org/1999/xlink"><radialGradient id="a" cx="0" cy="0" gradientTransform="matrix(1574.88 -779.72 -779.72 -1574.88 0 772)" gradientUnits="userSpaceOnUse" r="1"><stop offset="0" stop-color="#3023ae"/><stop offset="1" stop-color="#c86dd7"/></radialGradient><path d="m0 0h1544v772h-1544z" fill="url(#a)" transform="matrix(.5 -0 0 -1 0 772)"/><g fill-rule="nonzero"><path d="m2 4c0-.552.448-1 1-1h18c.552 0 1 .448 1 1v16c0 .552-.448 1-1 1h-18c-.552 0-1-.448-1-1zm2 1v14h16v-14zm2 2h2v2h-2zm2 4h-2v2h2zm-2 4h2v2h-2zm12-8h-8v2h8zm-8 8h8v2h-8zm8-4h-8v2h8z" fill="#adb8c2" transform="matrix(13.2055 -2.2122 2.2122 13.2055 200.987 431.975)"/><g fill="#ff9414" transform="translate(-340.452 -134.633)"><path d="m543.79 300.9h4.837c5.551 0 9.525-.713 11.926-2.138 2.4-1.425 3.599-3.712 3.599-6.862s-1.199-5.438-3.599-6.863c-2.401-1.425-6.375-2.137-11.926-2.137h-4.837zm0-34.425h4.05c6.9 0 10.35-2.738 10.35-8.213s-3.45-8.212-10.35-8.212h-4.05zm-22.05-33.3h32.85c7.8 0 13.725 1.875 17.775 5.625s6.075 9.15 6.075 16.2c0 4.275-.769 7.819-2.306 10.631-1.538 2.813-3.882 5.194-7.031 7.144 3.149.6 5.831 1.519 8.043 2.756 2.213 1.238 4.013 2.756 5.4 4.556 1.388 1.8 2.382 3.825 2.981 6.075.6 2.25.901 4.65.901 7.2 0 3.975-.694 7.5-2.082 10.575-1.387 3.075-3.337 5.663-5.85 7.763-2.512 2.1-5.568 3.675-9.168 4.725s-7.65 1.575-12.15 1.575h-35.438z"/><path d="m618.04 260.287v32.513c0 7.125 3.45 10.687 10.35 10.687s10.35-3.562 10.35-10.687v-32.513h20.363v36.45c0 7.8-2.569 13.65-7.707 17.55-5.137 3.9-12.806 5.85-23.006 5.85s-17.869-1.95-23.006-5.85c-5.138-3.9-7.706-9.75-7.706-17.55v-36.45z"/><path d="m693.303 260.287v57.713h-20.363v-57.713zm-21.713-22.162c0-1.575.3-3.056.9-4.444.6-1.387 1.425-2.606 2.475-3.656s2.269-1.875 3.656-2.475c1.388-.6 2.869-.9 4.444-.9s3.056.3 4.444.9c1.387.6 2.606 1.425 3.656 2.475s1.875 2.269 2.475 3.656c.6 1.388.9 2.869.9 4.444s-.3 3.056-.9 4.444c-.6 1.387-1.425 2.606-2.475 3.656s-2.269 1.875-3.656 2.475c-1.388.6-2.869.9-4.444.9s-3.056-.3-4.444-.9c-1.387-.6-2.606-1.425-3.656-2.475s-1.875-2.269-2.475-3.656c-.6-1.388-.9-2.869-.9-4.444z"/><path d="m707.253 224.625h20.362v93.375h-20.362z"/><path d="m760.465 288.975c0 1.875.338 3.619 1.013 5.231.675 1.613 1.593 3.019 2.756 4.219 1.162 1.2 2.55 2.137 4.162 2.812 1.613.675 3.357 1.013 5.232 1.013 1.8 0 3.506-.338 5.118-1.013 1.613-.675 3-1.612 4.163-2.812 1.162-1.2 2.1-2.588 2.812-4.163.713-1.575 1.069-3.262 1.069-5.062s-.356-3.506-1.069-5.119c-.712-1.612-1.65-3.019-2.812-4.219-1.163-1.2-2.55-2.137-4.163-2.812-1.612-.675-3.318-1.013-5.118-1.013s-3.507.338-5.119 1.013c-1.613.675-3 1.612-4.163 2.812-1.162 1.2-2.1 2.569-2.812 4.107-.713 1.537-1.069 3.206-1.069 5.006zm25.65-64.35h20.475v93.375h-20.475v-6.413c-4.35 5.475-10.237 8.213-17.662 8.213-4.2 0-8.063-.788-11.588-2.363s-6.6-3.75-9.225-6.525-4.669-6.037-6.131-9.787c-1.463-3.75-2.194-7.8-2.194-12.15 0-4.125.694-8.044 2.081-11.756 1.388-3.713 3.357-6.957 5.907-9.732s5.606-4.968 9.168-6.581c3.563-1.612 7.482-2.419 11.757-2.419 7.2 0 13.162 2.513 17.887 7.538z"/><path d="m862.615 280.762c-.675-2.85-2.062-5.137-4.162-6.862s-4.65-2.588-7.65-2.588c-3.15 0-5.719.825-7.707 2.475-1.987 1.65-3.243 3.975-3.768 6.975zm-23.85 11.813c0 8.775 4.125 13.162 12.375 13.162 4.425 0 7.763-1.8 10.013-5.4h19.687c-3.975 13.2-13.912 19.8-29.812 19.8-4.875 0-9.338-.731-13.388-2.193-4.05-1.463-7.519-3.544-10.406-6.244-2.888-2.7-5.119-5.925-6.694-9.675s-2.362-7.95-2.362-12.6c0-4.8.75-9.131 2.25-12.994 1.5-3.862 3.637-7.144 6.412-9.844s6.131-4.781 10.069-6.243c3.937-1.463 8.381-2.194 13.331-2.194 4.875 0 9.262.731 13.163 2.194 3.9 1.462 7.2 3.581 9.9 6.356s4.762 6.169 6.187 10.181c1.425 4.013 2.138 8.531 2.138 13.556v2.138z"/><path d="m893.215 260.287h20.363v9.45c2.175-3.45 4.837-6.093 7.987-7.931 3.15-1.837 6.825-2.756 11.025-2.756h1.744c.637 0 1.369.075 2.194.225v19.462c-2.7-1.35-5.625-2.025-8.775-2.025-4.725 0-8.269 1.407-10.632 4.219-2.362 2.813-3.543 6.919-3.543 12.319v24.75h-20.363z"/><path d="m458.234 358.175v66.15h26.437v18.675h-48.487v-84.825z"/><path d="m514.484 385.287v57.713h-20.363v-57.713zm-21.713-22.162c0-1.575.3-3.056.9-4.444.6-1.387 1.425-2.606 2.475-3.656s2.269-1.875 3.657-2.475c1.387-.6 2.868-.9 4.443-.9s3.057.3 4.444.9c1.388.6 2.606 1.425 3.656 2.475s1.875 2.269 2.475 3.656c.6 1.388.9 2.869.9 4.444s-.3 3.056-.9 4.444c-.6 1.387-1.425 2.606-2.475 3.656s-2.268 1.875-3.656 2.475c-1.387.6-2.869.9-4.444.9s-3.056-.3-4.443-.9c-1.388-.6-2.607-1.425-3.657-2.475s-1.875-2.269-2.475-3.656c-.6-1.388-.9-2.869-.9-4.444z"/><path d="m566.684 400.137c-3.75-1.95-7.425-2.925-11.025-2.925-1.875 0-3.394.375-4.556 1.125-1.163.75-1.744 1.763-1.744 3.038 0 .675.094 1.219.281 1.631.188.413.6.806 1.238 1.181.637.375 1.575.713 2.812 1.013 1.238.3 2.869.675 4.894 1.125 5.625 1.125 9.825 3.131 12.6 6.019 2.775 2.887 4.162 6.581 4.162 11.081 0 3.375-.675 6.412-2.025 9.112s-3.225 4.969-5.625 6.807c-2.4 1.837-5.287 3.262-8.662 4.275-3.375 1.012-7.088 1.518-11.138 1.518-7.8 0-15.487-2.212-23.062-6.637l7.425-14.4c5.7 3.9 11.1 5.85 16.2 5.85 1.875 0 3.412-.413 4.612-1.238s1.8-1.875 1.8-3.15c0-.75-.093-1.368-.281-1.856-.187-.487-.581-.937-1.181-1.35-.6-.412-1.481-.787-2.644-1.125-1.162-.337-2.681-.694-4.556-1.069-6.3-1.275-10.706-3.168-13.219-5.681-2.512-2.512-3.769-5.981-3.769-10.406 0-3.225.6-6.131 1.8-8.719 1.2-2.587 2.925-4.781 5.175-6.581s4.969-3.188 8.157-4.163c3.187-.975 6.731-1.462 10.631-1.462 6.375 0 12.562 1.237 18.562 3.712z"/><path d="m609.996 402.275v40.725h-20.362v-40.725h-6.75v-16.988h6.75v-17.325h20.362v17.325h11.588v16.988z"/><path d="m691.446 397.1h7.313c8.1 0 12.15-3.525 12.15-10.575s-4.05-10.575-12.15-10.575h-7.313zm0 45.9h-22.05v-84.825h35.1c9.525 0 16.819 2.475 21.881 7.425 5.063 4.95 7.594 11.925 7.594 20.925s-2.531 15.975-7.594 20.925c-5.062 4.95-12.356 7.425-21.881 7.425h-13.05z"/><path d="m761.309 413.975c0 1.875.337 3.619 1.012 5.231.675 1.613 1.594 3.019 2.756 4.219 1.163 1.2 2.55 2.137 4.163 2.812s3.356 1.013 5.231 1.013c1.8 0 3.507-.338 5.119-1.013s3-1.612 4.162-2.812c1.163-1.2 2.101-2.588 2.813-4.163s1.069-3.262 1.069-5.062-.357-3.506-1.069-5.119c-.712-1.612-1.65-3.019-2.813-4.219-1.162-1.2-2.55-2.137-4.162-2.812s-3.319-1.013-5.119-1.013c-1.875 0-3.618.338-5.231 1.013s-3 1.612-4.163 2.812c-1.162 1.2-2.081 2.569-2.756 4.107-.675 1.537-1.012 3.206-1.012 5.006zm25.65-28.688h20.475v57.713h-20.475v-6.413c-4.35 5.475-10.238 8.213-17.663 8.213-4.2 0-8.062-.769-11.587-2.306-3.525-1.538-6.6-3.694-9.225-6.469s-4.669-6.038-6.131-9.788c-1.463-3.75-2.194-7.837-2.194-12.262 0-4.125.712-8.044 2.137-11.756 1.425-3.713 3.413-6.957 5.963-9.732s5.587-4.968 9.112-6.581c3.525-1.612 7.425-2.419 11.7-2.419 7.2 0 13.163 2.513 17.888 7.538z"/><path d="m840.171 413.862c0 1.875.338 3.619 1.013 5.232.675 1.612 1.593 3.018 2.756 4.218 1.162 1.2 2.55 2.138 4.162 2.813 1.613.675 3.357 1.012 5.232 1.012 1.8 0 3.506-.337 5.118-1.012 1.613-.675 3-1.613 4.163-2.813 1.162-1.2 2.1-2.606 2.812-4.218.713-1.613 1.069-3.319 1.069-5.119 0-1.875-.356-3.6-1.069-5.175-.712-1.575-1.668-2.963-2.868-4.163s-2.607-2.137-4.219-2.812c-1.613-.675-3.281-1.013-5.006-1.013-1.8 0-3.488.357-5.063 1.069-1.575.713-2.962 1.65-4.162 2.813-1.2 1.162-2.157 2.531-2.869 4.106-.713 1.575-1.069 3.262-1.069 5.062zm45.675-28.575v53.775c0 3.225-.187 6.113-.562 8.663s-.9 4.8-1.575 6.75c-.9 2.475-2.307 4.781-4.219 6.919-1.913 2.137-4.219 3.993-6.919 5.568s-5.756 2.813-9.169 3.713c-3.412.9-7.106 1.35-11.081 1.35-4.5 0-8.625-.563-12.375-1.688s-7.031-2.681-9.844-4.668c-2.812-1.988-5.118-4.313-6.918-6.975-1.8-2.663-3-5.569-3.6-8.719h22.95c1.425 3.825 4.65 5.737 9.675 5.737 4.275 0 7.556-1.2 9.843-3.6 2.288-2.4 3.432-5.737 3.432-10.012v-5.513c-1.5 1.425-2.944 2.607-4.332 3.544-1.387.938-2.793 1.706-4.218 2.306s-2.925 1.032-4.5 1.294c-1.575.263-3.3.394-5.175.394-4.125 0-7.913-.713-11.363-2.138s-6.431-3.412-8.944-5.962c-2.512-2.55-4.462-5.606-5.85-9.169-1.387-3.562-2.081-7.519-2.081-11.869 0-4.425.75-8.531 2.25-12.318 1.5-3.788 3.544-7.088 6.131-9.9 2.588-2.813 5.663-5.025 9.225-6.638 3.563-1.612 7.444-2.419 11.644-2.419 6.825 0 12.563 2.55 17.213 7.65v-6.075z"/><path d="m943.221 405.762c-.675-2.85-2.062-5.137-4.162-6.862s-4.65-2.588-7.65-2.588c-3.15 0-5.719.825-7.707 2.475-1.987 1.65-3.243 3.975-3.768 6.975zm-23.85 11.813c0 8.775 4.125 13.162 12.375 13.162 4.425 0 7.763-1.8 10.013-5.4h19.687c-3.975 13.2-13.912 19.8-29.812 19.8-4.875 0-9.338-.731-13.388-2.193-4.05-1.463-7.518-3.544-10.406-6.244s-5.119-5.925-6.694-9.675-2.362-7.95-2.362-12.6c0-4.8.75-9.131 2.25-12.994 1.5-3.862 3.637-7.144 6.412-9.844s6.131-4.781 10.069-6.243c3.937-1.463 8.381-2.194 13.331-2.194 4.875 0 9.263.731 13.163 2.194 3.9 1.462 7.2 3.581 9.9 6.356s4.762 6.169 6.187 10.181c1.425 4.013 2.138 8.531 2.138 13.556v2.138z"/><path d="m1012.07 400.137c-3.75-1.95-7.42-2.925-11.02-2.925-1.879 0-3.398.375-4.56 1.125s-1.744 1.763-1.744 3.038c0 .675.094 1.219.281 1.631.188.413.6.806 1.238 1.181.637.375 1.575.713 2.813 1.013 1.242.3 2.872.675 4.892 1.125 5.63 1.125 9.83 3.131 12.6 6.019 2.78 2.887 4.16 6.581 4.16 11.081 0 3.375-.67 6.412-2.02 9.112s-3.23 4.969-5.63 6.807c-2.4 1.837-5.28 3.262-8.66 4.275-3.37 1.012-7.086 1.518-11.136 1.518-7.8 0-15.488-2.212-23.063-6.637l7.425-14.4c5.7 3.9 11.1 5.85 16.2 5.85 1.875 0 3.413-.413 4.613-1.238s1.801-1.875 1.801-3.15c0-.75-.09-1.368-.282-1.856-.188-.487-.582-.937-1.182-1.35-.6-.412-1.481-.787-2.644-1.125-1.162-.337-2.681-.694-4.556-1.069-6.3-1.275-10.706-3.168-13.219-5.681-2.512-2.512-3.768-5.981-3.768-10.406 0-3.225.6-6.131 1.8-8.719 1.2-2.587 2.925-4.781 5.175-6.581s4.968-3.188 8.156-4.163c3.187-.975 6.731-1.462 10.63-1.462 6.38 0 12.56 1.237 18.56 3.712z"/></g></g></svg>